<svg id="Calque_1" data-name="Calque 1" xmlns="http://www.w3.org/2000/svg" viewBox="0 0 86.67 86.67"><defs><style>.cls-1{fill:#e7e7fa;}.cls-2{fill:#fff;}</style></defs><path class="cls-1" d="M24.42,82.33a43.3,43.3,0,0,0,37.85,0l.34-.17A44.12,44.12,0,0,0,69,78.23a43.77,43.77,0,0,0,12.83-15A43.34,43.34,0,1,0,0,43.33,42.92,42.92,0,0,0,4.81,63.2a43.81,43.81,0,0,0,12.84,15l.6.43A43.56,43.56,0,0,0,24.42,82.33Z" transform="translate(0)"/><path class="cls-2" d="M24.22,82.26a43.5,43.5,0,0,0,37.84.16l.34-.18a45.84,45.84,0,0,0,5.72-3.36,21.38,21.38,0,0,0-2.48-9.37,26.07,26.07,0,0,0-45-.09,20.26,20.26,0,0,0-2.41,9.25A48.69,48.69,0,0,0,24.22,82.26Z" transform="translate(0)"/><ellipse class="cls-2" cx="43.63" cy="35.18" rx="17.5" ry="17.42"/></svg>
